<?xml version="1.0" encoding="iso-8859-1"?>
<!-- Generator: Adobe Illustrator 19.0.0, SVG Export Plug-In . SVG Version: 6.00 Build 0)  -->
<svg version="1.1" id="Capa_1" xmlns="http://www.w3.org/2000/svg" xmlns:xlink="http://www.w3.org/1999/xlink" x="0px" y="0px"
	 viewBox="0 0 512 512" style="enable-background:new 0 0 512 512;" xml:space="preserve">
<path style="fill:#58565C;" d="M40.632,472.614V277.099v-24.851V114.715h430.734v137.533v24.851v195.515l-132.535,0.005v-195.52
	v-24.85c0-45.747-37.085-82.832-82.832-82.832s-82.832,37.085-82.832,82.832v24.85v195.52L40.632,472.614z"/>
<g>
	<path style="fill:#49484D;" d="M357.559,187.781l45.872,38.226c1.078,0.899,2.438,1.391,3.841,1.391h24.96c3.314,0,6-2.686,6-6
		v-62.55c0-3.314-2.686-6-6-6h-70.833c-3.314,0-6,2.686-6,6v24.324C355.4,184.952,356.191,186.641,357.559,187.781z"/>
	<path style="fill:#49484D;" d="M438.235,384.783v-49.7c0-18.299-14.834-33.134-33.134-33.134c-18.3,0-33.133,14.834-33.133,33.134
		v49.7H438.235z"/>
</g>
<rect x="371.962" y="384.782" style="fill:#00BCE7;" width="66.27" height="85.46"/>
<rect x="418.232" y="384.252" style="fill:#0094D4;" width="20" height="86.001"/>
<g>
	<path style="fill:#FFD151;" d="M454.803,392.284h-99.401c-4.143,0-7.5-3.357-7.5-7.5s3.357-7.5,7.5-7.5h99.401
		c4.142,0,7.5,3.357,7.5,7.5C462.303,388.926,458.945,392.284,454.803,392.284z"/>
	<path style="fill:#FFD151;" d="M438.236,417.135h-66.268c-4.143,0-7.5-3.357-7.5-7.5c0-4.143,3.357-7.5,7.5-7.5h66.268
		c4.142,0,7.5,3.357,7.5,7.5C445.736,413.778,442.379,417.135,438.236,417.135z"/>
	<path style="fill:#FFD151;" d="M322.268,500.747V473.62c0-3.314,2.686-6,6-6h153.665c3.314,0,6,2.686,6,6v27.127H322.268z"/>
</g>
<path style="fill:#F79B4A;" d="M487.933,500.752h-20v-33.138h14c3.314,0,6,2.686,6,6V500.752z"/>
<rect x="338.832" y="272.502" style="fill:#49484D;" width="132.531" height="24.601"/>
<path style="fill:#FFD151;" d="M479.61,252.249H330.591c-4.095,0-6.987,4.012-5.692,7.897l4.284,12.85
	c0.817,2.45,3.109,4.103,5.692,4.103h140.453c2.583,0,4.875-1.653,5.692-4.103l4.283-12.85
	C486.597,256.262,483.706,252.249,479.61,252.249z"/>
<path style="fill:#F79B4A;" d="M479.61,252.249h-20c4.095,0,6.987,4.012,5.692,7.897l-4.283,12.851
	c-0.817,2.45-3.11,4.103-5.692,4.103h20c2.582,0,4.875-1.653,5.692-4.103l4.283-12.851
	C486.597,256.262,483.706,252.249,479.61,252.249z"/>
<g>
	<path style="fill:#49484D;" d="M154.44,187.781l-45.872,38.226c-1.078,0.899-2.437,1.391-3.841,1.391h-24.96c-3.314,0-6-2.686-6-6
		v-62.55c0-3.314,2.686-6,6-6H150.6c3.314,0,6,2.686,6,6v24.324C156.599,184.952,155.808,186.641,154.44,187.781z"/>
	<path style="fill:#49484D;" d="M73.765,384.783v-49.7c0-18.299,14.834-33.134,33.133-33.134s33.133,14.834,33.133,33.134v49.7
		H73.765z"/>
</g>
<rect x="73.77" y="384.782" style="fill:#00BCE7;" width="66.27" height="85.46"/>
<rect x="73.77" y="384.252" style="fill:#0094D4;" width="20" height="86.001"/>
<g>
	<path style="fill:#FFD151;" d="M57.197,392.284h99.401c4.143,0,7.5-3.357,7.5-7.5s-3.357-7.5-7.5-7.5H57.197
		c-4.143,0-7.5,3.357-7.5,7.5C49.697,388.926,53.054,392.284,57.197,392.284z"/>
	<path style="fill:#FFD151;" d="M73.763,417.135h66.268c4.143,0,7.5-3.357,7.5-7.5c0-4.143-3.357-7.5-7.5-7.5H73.763
		c-4.143,0-7.5,3.357-7.5,7.5C66.263,413.778,69.62,417.135,73.763,417.135z"/>
</g>
<g>
	<rect x="40.632" y="272.502" style="fill:#49484D;" width="132.531" height="24.601"/>
	<rect x="40.632" y="114.711" style="fill:#49484D;" width="430.733" height="24.601"/>
</g>
<path style="fill:#FFD151;" d="M181.409,252.249H32.389c-4.095,0-6.987,4.012-5.692,7.897l4.284,12.85
	c0.817,2.45,3.11,4.103,5.692,4.103h140.453c2.583,0,4.876-1.653,5.692-4.103l4.283-12.85
	C188.396,256.262,185.504,252.249,181.409,252.249z"/>
<path style="fill:#F79B4A;" d="M181.409,252.249h-20c4.095,0,6.987,4.012,5.692,7.897l-4.283,12.851
	c-0.817,2.45-3.11,4.103-5.692,4.103h20c2.583,0,4.875-1.653,5.692-4.103l4.283-12.851
	C188.396,256.262,185.504,252.249,181.409,252.249z"/>
<rect x="40.632" y="28.25" style="fill:#00BCE7;" width="430.733" height="50.4"/>
<g>
	<path style="fill:#0094D4;" d="M73.765,29.379c-4.142,0-7.5,3.358-7.5,7.5v33.135c0,4.143,3.358,7.5,7.5,7.5
		c4.142,0,7.5-3.357,7.5-7.5V36.879C81.265,32.737,77.907,29.379,73.765,29.379z"/>
	<path style="fill:#0094D4;" d="M106.898,29.379c-4.142,0-7.5,3.358-7.5,7.5v33.135c0,4.143,3.358,7.5,7.5,7.5s7.5-3.357,7.5-7.5
		V36.879C114.398,32.737,111.04,29.379,106.898,29.379z"/>
	<path style="fill:#0094D4;" d="M140.03,29.379c-4.142,0-7.5,3.358-7.5,7.5v33.135c0,4.143,3.358,7.5,7.5,7.5
		c4.142,0,7.5-3.357,7.5-7.5V36.879C147.53,32.737,144.172,29.379,140.03,29.379z"/>
	<path style="fill:#0094D4;" d="M173.163,29.379c-4.142,0-7.5,3.358-7.5,7.5v33.135c0,4.143,3.358,7.5,7.5,7.5
		c4.142,0,7.5-3.357,7.5-7.5V36.879C180.663,32.737,177.305,29.379,173.163,29.379z"/>
	<path style="fill:#0094D4;" d="M206.295,29.379c-4.142,0-7.5,3.358-7.5,7.5v33.135c0,4.143,3.358,7.5,7.5,7.5s7.5-3.357,7.5-7.5
		V36.879C213.795,32.737,210.437,29.379,206.295,29.379z"/>
	<path style="fill:#0094D4;" d="M239.428,29.379c-4.142,0-7.5,3.358-7.5,7.5v33.135c0,4.143,3.358,7.5,7.5,7.5
		c4.142,0,7.5-3.357,7.5-7.5V36.879C246.928,32.737,243.57,29.379,239.428,29.379z"/>
	<path style="fill:#0094D4;" d="M272.561,29.379c-4.143,0-7.5,3.358-7.5,7.5v33.135c0,4.143,3.357,7.5,7.5,7.5s7.5-3.357,7.5-7.5
		V36.879C280.061,32.737,276.704,29.379,272.561,29.379z"/>
	<path style="fill:#0094D4;" d="M305.693,29.379c-4.143,0-7.5,3.358-7.5,7.5v33.135c0,4.143,3.357,7.5,7.5,7.5
		c4.142,0,7.5-3.357,7.5-7.5V36.879C313.193,32.737,309.836,29.379,305.693,29.379z"/>
	<path style="fill:#0094D4;" d="M338.826,29.379c-4.143,0-7.5,3.358-7.5,7.5v33.135c0,4.143,3.357,7.5,7.5,7.5s7.5-3.357,7.5-7.5
		V36.879C346.326,32.737,342.969,29.379,338.826,29.379z"/>
	<path style="fill:#0094D4;" d="M371.958,29.379c-4.143,0-7.5,3.358-7.5,7.5v33.135c0,4.143,3.357,7.5,7.5,7.5s7.5-3.357,7.5-7.5
		V36.879C379.458,32.737,376.101,29.379,371.958,29.379z"/>
	<path style="fill:#0094D4;" d="M405.091,29.379c-4.143,0-7.5,3.358-7.5,7.5v33.135c0,4.143,3.357,7.5,7.5,7.5
		c4.143,0,7.5-3.357,7.5-7.5V36.879C412.591,32.737,409.233,29.379,405.091,29.379z"/>
	<path style="fill:#0094D4;" d="M438.225,29.379c-4.142,0-7.5,3.358-7.5,7.5v33.135c0,4.143,3.358,7.5,7.5,7.5
		c4.143,0,7.5-3.357,7.5-7.5V36.879C445.725,32.737,442.367,29.379,438.225,29.379z"/>
</g>
<path style="fill:#FFD151;" d="M487.934,77.013v23.234c0,1.856-0.737,3.637-2.05,4.95l-12.466,12.467
	c-1.313,1.313-3.093,2.05-4.95,2.05H43.532c-1.857,0-3.637-0.738-4.95-2.05l-12.466-12.467c-1.313-1.313-2.05-3.093-2.05-4.95
	V77.013c0-3.866,3.134-7,7-7h449.867C484.8,70.013,487.934,73.147,487.934,77.013z"/>
<path style="fill:#F79B4A;" d="M38.582,117.665c1.313,1.313,3.093,2.05,4.95,2.05h424.936c1.857,0,3.637-0.738,4.95-2.05
	l12.466-12.467c1.313-1.313,2.05-3.093,2.05-4.95H26.998h-2.932c0,1.856,0.737,3.637,2.05,4.95L38.582,117.665z"/>
<g>
	<circle style="fill:#49484D;" cx="90.331" cy="94.861" r="7.766"/>
	<circle style="fill:#49484D;" cx="156.601" cy="94.861" r="7.766"/>
	<circle style="fill:#49484D;" cx="222.861" cy="94.861" r="7.766"/>
	<circle style="fill:#49484D;" cx="289.132" cy="94.861" r="7.766"/>
	<circle style="fill:#49484D;" cx="355.402" cy="94.861" r="7.766"/>
	<circle style="fill:#49484D;" cx="421.672" cy="94.861" r="7.766"/>
</g>
<path style="fill:#FFD151;" d="M481.933,36.88H30.065c-3.314,0-6-2.686-6-6V9.748c0-3.314,2.686-6,6-6h451.868c3.314,0,6,2.686,6,6
	V30.88C487.933,34.194,485.246,36.88,481.933,36.88z"/>
<g>
	<path style="fill:#F79B4A;" d="M481.933,3.748h-20c3.314,0,6,2.686,6,6V30.88c0,3.314-2.686,6-6,6h20c3.314,0,6-2.686,6-6V9.748
		C487.933,6.435,485.247,3.748,481.933,3.748z"/>
	<path style="fill:#F79B4A;" d="M480.934,70.013H461c3.866,0,7,3.134,7,7v23.234c0,1.856-0.737,3.637-2.05,4.95l-12.466,12.467
		c-1.313,1.313-3.093,2.05-4.95,2.05h19.934c1.857,0,3.637-0.738,4.95-2.05l12.466-12.467c1.313-1.313,2.05-3.093,2.05-4.95V77.013
		C487.934,73.147,484.8,70.013,480.934,70.013z"/>
</g>
<path style="fill:#F27938;" d="M465.95,105.198l-12.466,12.467c-1.313,1.313-3.093,2.05-4.95,2.05h19.934
	c1.857,0,3.637-0.738,4.95-2.05l12.466-12.467c1.313-1.313,2.05-3.093,2.05-4.95H468C468,102.105,467.262,103.885,465.95,105.198z"
	/>
<rect x="239.431" y="119.711" style="fill:#00BCE7;" width="33.13" height="49.702"/>
<rect x="239.431" y="149.411" style="fill:#0094D4;" width="33.13" height="20"/>
<path style="fill:#FFD151;" d="M24.066,500.747V473.62c0-3.314,2.686-6,6-6h153.665c3.314,0,6,2.686,6,6v27.127H24.066z"/>
<path style="fill:#F79B4A;" d="M189.731,500.752h-20v-33.138h14c3.314,0,6,2.686,6,6V500.752z"/>
<path style="fill:#58565C;" d="M504.5,493.252H7.5c-4.142,0-7.5,3.357-7.5,7.5s3.358,7.5,7.5,7.5h497c4.143,0,7.5-3.357,7.5-7.5
	S508.643,493.252,504.5,493.252z"/>
<circle cx="90.331" cy="94.861" r="7.766"/>
<circle cx="156.601" cy="94.861" r="7.766"/>
<circle cx="222.861" cy="94.861" r="7.766"/>
<circle cx="289.132" cy="94.861" r="7.766"/>
<circle cx="355.402" cy="94.861" r="7.766"/>
<circle cx="421.672" cy="94.861" r="7.766"/>
</svg>