<?xml version="1.0" encoding="utf-8"?>
<!-- Generator: Adobe Illustrator 21.1.0, SVG Export Plug-In . SVG Version: 6.00 Build 0)  -->
<svg version="1.1" id="Layer_1" xmlns="http://www.w3.org/2000/svg" xmlns:xlink="http://www.w3.org/1999/xlink" x="0px" y="0px"
	 viewBox="0 0 97.1 95.1" style="enable-background:new 0 0 97.1 95.1;" xml:space="preserve">
<style type="text/css">
	.st0{fill:none;}
	.st1{fill:#FFFFFF;}
</style>
<title>Asset 1</title>
<path class="st0" d="M75.5,135.6c0,0.9,0.3,1.1,0.8,1.1c1.1,0,1.6-3,1.6-7.4v-3.8c-2.1,2.1-2.4,3.2-2.4,5.2V135.6z"/>
<path class="st0" d="M53.4,113.8c-1,0-1.3,1.1-1.3,2.8l0,0V133c0,3.4,0.9,4,1.9,4s1.3-1.1,1.3-2.7v-16.5
	C55.3,114.3,54.4,113.8,53.4,113.8z"/>
<path class="st0" d="M29.2,46.8h17c0.3-1.2,1.4-2,2.7-2s2.3,0.9,2.7,2h17c0.1-0.5,0.4-0.9,0.8-1.3l-20-40c-0.2,0-0.3,0.1-0.5,0.1
	s-0.3,0-0.5-0.1l-20,39.9C28.8,45.8,29.1,46.3,29.2,46.8z M48.9,22.4c1.5,0,2.8,1.3,2.8,2.8S50.4,28,48.9,28s-2.8-1.3-2.8-2.8
	S47.3,22.4,48.9,22.4z"/>
<polygon class="st0" points="6.6,112.4 6.1,112.4 5,129 8.4,129 7.5,122 "/>
<path class="st1" d="M4.1,95.1c1.5,0,2.8-1.3,2.8-2.8c0-0.8-0.4-1.5-0.9-2l-1.2,2.4c-0.2,0.4-0.7,0.4-1.1,0.2
	c-0.3-0.2-0.4-0.5-0.3-0.8l1.2-2.4c-0.2,0-0.4-0.1-0.5-0.1c-1.5,0-2.8,1.3-2.8,2.8S2.6,95.1,4.1,95.1z"/>
<circle class="st1" cx="26.5" cy="92.3" r="2.8"/>
<circle class="st1" cx="48.9" cy="92.3" r="2.8"/>
<circle class="st1" cx="71.3" cy="92.3" r="2.8"/>
<path class="st1" d="M94,93c-0.1,0-0.2,0.1-0.3,0.1l0,0c-0.3,0-0.6-0.2-0.7-0.4l-1.2-2.4c-0.6,0.5-0.9,1.2-0.9,2
	c0,1.5,1.3,2.8,2.8,2.8s2.8-1.3,2.8-2.8s-1.3-2.8-2.8-2.8c-0.2,0-0.4,0-0.5,0.1l1.2,2.4C94.5,92.4,94.4,92.9,94,93z"/>
<circle class="st1" cx="4.1" cy="69.9" r="2.8"/>
<circle class="st1" cx="26.5" cy="69.9" r="2.8"/>
<circle class="st1" cx="48.9" cy="69.9" r="2.8"/>
<circle class="st1" cx="71.3" cy="69.9" r="2.8"/>
<circle class="st1" cx="93.6" cy="69.9" r="2.8"/>
<circle class="st1" cx="4.1" cy="47.6" r="2.8"/>
<path class="st1" d="M26.5,44.8c-1.5,0-2.8,1.3-2.8,2.8c0,0.8,0.4,1.5,0.9,2.1l2.4-4.8C26.9,44.8,26.7,44.8,26.5,44.8z"/>
<path class="st1" d="M26,50.3c0.2,0,0.3,0.1,0.5,0.1c1.3,0,2.3-0.9,2.7-2H27L26,50.3z"/>
<path class="st1" d="M28.4,45.5l-0.6,1.3h1.4C29.1,46.3,28.8,45.8,28.4,45.5z"/>
<path class="st1" d="M48.9,44.8c-1.3,0-2.3,0.9-2.7,2h5.4C51.2,45.6,50.2,44.8,48.9,44.8z"/>
<path class="st1" d="M48.9,50.3c1.3,0,2.3-0.9,2.7-2h-5.4C46.5,49.5,47.6,50.3,48.9,50.3z"/>
<path class="st1" d="M68.6,46.8H70l-0.6-1.3C69,45.8,68.7,46.3,68.6,46.8z"/>
<path class="st1" d="M74.1,47.6c0-1.5-1.3-2.8-2.8-2.8c-0.2,0-0.3,0-0.5,0.1l2.4,4.8C73.7,49.1,74.1,48.4,74.1,47.6z"/>
<path class="st1" d="M68.6,48.3c0.3,1.2,1.4,2,2.7,2c0.2,0,0.3,0,0.5-0.1l-1-2H68.6z"/>
<circle class="st1" cx="93.6" cy="47.6" r="2.8"/>
<circle class="st1" cx="4.1" cy="25.2" r="2.8"/>
<circle class="st1" cx="26.5" cy="25.2" r="2.8"/>
<circle class="st1" cx="48.9" cy="25.2" r="2.8"/>
<circle class="st1" cx="71.3" cy="25.2" r="2.8"/>
<circle class="st1" cx="93.6" cy="25.2" r="2.8"/>
<circle class="st1" cx="4.1" cy="2.8" r="2.8"/>
<circle class="st1" cx="26.5" cy="2.8" r="2.8"/>
<path class="st1" d="M49.4,5.5l-0.5-1l-0.5,1c0.2,0,0.3,0.1,0.5,0.1S49.2,5.6,49.4,5.5z"/>
<path class="st1" d="M49.2,2.1c0.1,0.1,0.3,0.2,0.3,0.3l1.2,2.4c0.6-0.5,0.9-1.2,0.9-2c0-1.5-1.3-2.8-2.8-2.8s-2.8,1.3-2.8,2.8
	c0,0.8,0.4,1.5,0.9,2.1l1.2-2.4C48.4,2.1,48.9,1.9,49.2,2.1z"/>
<circle class="st1" cx="71.3" cy="2.8" r="2.8"/>
<circle class="st1" cx="93.6" cy="2.8" r="2.8"/>
<path class="st1" d="M48.4,5.5c-0.5-0.1-1-0.3-1.4-0.7L27,44.8c0.5,0.1,1,0.3,1.4,0.7L48.4,5.5z"/>
<path class="st1" d="M26,50.3c-0.5-0.1-1-0.3-1.4-0.7l-20,39.9c0.5,0.1,1,0.4,1.4,0.7L26,50.3z"/>
<path class="st1" d="M91.7,90.3c0.4-0.4,0.8-0.6,1.4-0.7l-20-39.9c-0.4,0.3-0.9,0.6-1.4,0.7L91.7,90.3z"/>
<path class="st1" d="M69.4,45.5c0.4-0.4,0.9-0.6,1.4-0.7l-20-40c-0.4,0.4-0.9,0.6-1.4,0.7L69.4,45.5z"/>
<path class="st1" d="M3.8,92.8c0.4,0.2,0.8,0.2,1.1-0.2L6,90.3c-0.4-0.3-0.8-0.6-1.4-0.7L3.5,92C3.4,92.3,3.5,92.6,3.8,92.8z"/>
<path class="st1" d="M92.9,92.6c0.1,0.3,0.4,0.4,0.7,0.4l0,0c0.1,0,0.2,0,0.3-0.1c0.4-0.2,0.5-0.7,0.4-1l-1.2-2.4
	c-0.5,0.1-1,0.3-1.4,0.7L92.9,92.6z"/>
<path class="st1" d="M27,48.3h-0.5c-0.4,0-0.7-0.4-0.7-0.9c0-0.4,0.3-0.6,0.7-0.7h1.3l0.6-1.3c-0.4-0.3-0.8-0.6-1.4-0.7l-2.4,4.8
	c0.4,0.3,0.8,0.6,1.4,0.7L27,48.3z"/>
<path class="st1" d="M70,46.8h1.3c0.4,0,0.7,0.4,0.7,0.9c0,0.4-0.3,0.6-0.7,0.7h-0.5l1,2c0.5-0.1,1-0.3,1.4-0.7l-2.4-4.8
	c-0.5,0.1-1,0.3-1.4,0.7L70,46.8z"/>
<path class="st1" d="M48.9,4.5l0.5,1c0.5-0.1,1-0.3,1.4-0.7l-1.2-2.4c-0.1-0.1-0.2-0.3-0.3-0.3c-0.4-0.2-0.9,0-1,0.3L47,4.9
	c0.4,0.3,0.9,0.6,1.4,0.7L48.9,4.5z"/>
<path class="st1" d="M46.2,46.8h-17c0.1,0.2,0.1,0.5,0.1,0.8c0,0.3,0,0.5-0.1,0.8h17c-0.1-0.2-0.1-0.5-0.1-0.8
	C46.1,47.3,46.1,47,46.2,46.8z"/>
<path class="st1" d="M68.6,46.8h-17c0.1,0.2,0.1,0.5,0.1,0.8c0,0.3,0,0.5-0.1,0.8h17c-0.1-0.2-0.1-0.5-0.1-0.8
	C68.5,47.3,68.5,47,68.6,46.8z"/>
<path class="st1" d="M29.2,46.8h-1.4L27,48.3h2.2c0.1-0.2,0.1-0.5,0.1-0.8C29.3,47.3,29.3,47,29.2,46.8z"/>
<path class="st1" d="M51.6,46.8h-5.4c-0.1,0.2-0.1,0.5-0.1,0.8c0,0.3,0,0.5,0.1,0.8h5.4c0.1-0.2,0.1-0.5,0.1-0.8
	C51.7,47.3,51.6,47,51.6,46.8z"/>
<path class="st1" d="M70,46.8h-1.4c-0.1,0.2-0.1,0.5-0.1,0.8c0,0.3,0,0.5,0.1,0.8h2.2L70,46.8z"/>
<path class="st1" d="M26.5,46.8c-0.4,0-0.6,0.3-0.7,0.7c0,0.4,0.3,0.8,0.7,0.9H27l0.8-1.6H26.5z"/>
<path class="st1" d="M71.3,48.3c0.4,0,0.6-0.3,0.7-0.7c0-0.4-0.3-0.8-0.7-0.9H70l0.8,1.6H71.3z"/>
</svg>
