<?xml version="1.0" encoding="utf-8"?>
<!-- Generator: Adobe Illustrator 22.1.0, SVG Export Plug-In . SVG Version: 6.00 Build 0)  -->
<svg version="1.1" id="Layer_1" xmlns="http://www.w3.org/2000/svg" xmlns:xlink="http://www.w3.org/1999/xlink" x="0px" y="0px"
	 viewBox="0 0 227.7 30" style="enable-background:new 0 0 227.7 30;" xml:space="preserve">
<style type="text/css">
	.st0{fill:#1E1F26;}
</style>
<title>roast</title>
<desc>Created with Sketch.</desc>
<g>
	<path class="st0" d="M28.6,29.7h-4.2c-0.5,0-0.9-0.1-1.2-0.4c-0.3-0.2-0.5-0.5-0.7-0.9l-2.2-6H8.2l-2.2,6c-0.1,0.3-0.3,0.6-0.6,0.9
		c-0.3,0.3-0.7,0.4-1.2,0.4H0L11.5,0.3h5.6L28.6,29.7z M19,18.6l-3.6-9.8c-0.2-0.4-0.4-0.9-0.5-1.5c-0.2-0.6-0.4-1.2-0.6-1.9
		C14.1,6,14,6.7,13.8,7.3c-0.2,0.6-0.4,1.1-0.5,1.6l-3.6,9.7H19z"/>
	<path class="st0" d="M50.2,5.7c-0.2,0.3-0.3,0.5-0.5,0.6c-0.2,0.1-0.4,0.2-0.7,0.2c-0.3,0-0.6-0.1-0.9-0.3
		c-0.3-0.2-0.7-0.4-1.2-0.7c-0.5-0.3-1-0.5-1.6-0.7c-0.6-0.2-1.3-0.3-2.2-0.3c-0.8,0-1.4,0.1-2,0.3c-0.6,0.2-1,0.4-1.4,0.8
		c-0.4,0.3-0.7,0.7-0.9,1.2c-0.2,0.5-0.3,1-0.3,1.5c0,0.7,0.2,1.3,0.6,1.7c0.4,0.5,0.9,0.9,1.5,1.2s1.4,0.6,2.2,0.9
		c0.8,0.3,1.6,0.5,2.5,0.8c0.9,0.3,1.7,0.6,2.5,1c0.8,0.4,1.5,0.9,2.2,1.5c0.6,0.6,1.1,1.3,1.5,2.2s0.6,1.9,0.6,3.1
		c0,1.3-0.2,2.6-0.7,3.7c-0.5,1.2-1.1,2.2-2,3c-0.9,0.9-1.9,1.5-3.2,2c-1.3,0.5-2.7,0.7-4.3,0.7c-0.9,0-1.9-0.1-2.8-0.3
		c-0.9-0.2-1.8-0.4-2.6-0.8c-0.8-0.3-1.6-0.7-2.3-1.2c-0.7-0.5-1.4-1-1.9-1.6l1.6-2.6c0.1-0.2,0.3-0.3,0.5-0.5
		c0.2-0.1,0.4-0.2,0.7-0.2c0.3,0,0.7,0.1,1.1,0.4c0.4,0.3,0.9,0.6,1.4,0.9c0.5,0.3,1.2,0.6,1.9,0.9c0.7,0.3,1.6,0.4,2.6,0.4
		c1.6,0,2.8-0.4,3.6-1.1c0.9-0.7,1.3-1.8,1.3-3.2c0-0.8-0.2-1.4-0.6-1.9c-0.4-0.5-0.9-0.9-1.5-1.2c-0.6-0.3-1.4-0.6-2.2-0.8
		c-0.8-0.2-1.6-0.5-2.5-0.8c-0.8-0.3-1.7-0.6-2.5-1c-0.8-0.4-1.5-0.9-2.2-1.5c-0.6-0.6-1.1-1.4-1.5-2.3c-0.4-0.9-0.6-2-0.6-3.4
		c0-1.1,0.2-2.1,0.6-3.1c0.4-1,1-1.9,1.9-2.7c0.8-0.8,1.8-1.4,3-1.9C40.1,0.2,41.4,0,43,0c1.7,0,3.3,0.3,4.8,0.8
		c1.5,0.5,2.7,1.3,3.7,2.3L50.2,5.7z"/>
	<path class="st0" d="M80.1,4.8h-8.8v24.9h-5.5V4.8H57V0.3h23.2V4.8z"/>
	<path class="st0" d="M109.7,29.7h-4.9c-0.9,0-1.6-0.4-2-1.1l-6.2-9.4c-0.2-0.4-0.5-0.6-0.8-0.8c-0.3-0.1-0.7-0.2-1.2-0.2h-2.3v11.5
		h-5.5V0.3h9c2,0,3.7,0.2,5.1,0.6c1.4,0.4,2.6,1,3.5,1.7c0.9,0.7,1.6,1.6,2,2.7c0.4,1,0.6,2.2,0.6,3.4c0,1-0.1,1.9-0.4,2.8
		c-0.3,0.9-0.7,1.7-1.3,2.4c-0.5,0.7-1.2,1.3-2,1.9c-0.8,0.5-1.7,1-2.8,1.3c0.4,0.2,0.7,0.4,1,0.7c0.3,0.3,0.6,0.6,0.8,1L109.7,29.7
		z M95.7,14.3c1,0,1.9-0.1,2.7-0.4c0.8-0.3,1.4-0.6,1.9-1.1c0.5-0.5,0.9-1,1.1-1.6c0.2-0.6,0.4-1.3,0.4-2c0-1.5-0.5-2.6-1.5-3.4
		c-1-0.8-2.5-1.2-4.5-1.2h-3.5v9.7H95.7z"/>
	<path class="st0" d="M143.4,15c0,2.2-0.4,4.1-1.1,6c-0.7,1.8-1.7,3.4-3,4.8c-1.3,1.3-2.9,2.4-4.7,3.1c-1.8,0.8-3.9,1.1-6.1,1.1
		c-2.2,0-4.2-0.4-6.1-1.1c-1.8-0.8-3.4-1.8-4.7-3.1c-1.3-1.3-2.3-2.9-3-4.8c-0.7-1.8-1.1-3.8-1.1-6c0-2.2,0.4-4.1,1.1-6
		c0.7-1.8,1.7-3.4,3-4.8c1.3-1.3,2.9-2.4,4.7-3.1c1.8-0.8,3.8-1.1,6.1-1.1c1.5,0,2.9,0.2,4.2,0.5c1.3,0.3,2.5,0.8,3.6,1.5
		c1.1,0.6,2.1,1.4,3,2.3c0.9,0.9,1.6,1.9,2.2,3c0.6,1.1,1.1,2.3,1.4,3.6C143.2,12.2,143.4,13.6,143.4,15z M137.8,15
		c0-1.6-0.2-3.1-0.6-4.3c-0.4-1.3-1-2.4-1.8-3.3c-0.8-0.9-1.8-1.6-2.9-2.1c-1.1-0.5-2.4-0.7-3.9-0.7c-1.4,0-2.7,0.2-3.9,0.7
		c-1.1,0.5-2.1,1.2-2.9,2.1c-0.8,0.9-1.4,2-1.9,3.3c-0.4,1.3-0.6,2.7-0.6,4.3s0.2,3.1,0.6,4.3c0.4,1.3,1.1,2.4,1.9,3.2
		c0.8,0.9,1.8,1.6,2.9,2c1.1,0.5,2.4,0.7,3.9,0.7c1.4,0,2.7-0.2,3.9-0.7c1.1-0.5,2.1-1.2,2.9-2c0.8-0.9,1.4-2,1.8-3.2
		C137.6,18.1,137.8,16.6,137.8,15z"/>
	<path class="st0" d="M168.2,25.2v4.5H151V0.3h5.5v24.8H168.2z"/>
	<path class="st0" d="M200.1,29.7h-4.2c-0.5,0-0.9-0.1-1.2-0.4c-0.3-0.2-0.5-0.5-0.7-0.9l-2.2-6h-12.2l-2.2,6
		c-0.1,0.3-0.3,0.6-0.6,0.9c-0.3,0.3-0.7,0.4-1.2,0.4h-4.3L183,0.3h5.6L200.1,29.7z M190.4,18.6l-3.6-9.8c-0.2-0.4-0.4-0.9-0.5-1.5
		c-0.2-0.6-0.4-1.2-0.6-1.9c-0.2,0.7-0.4,1.3-0.5,1.9c-0.2,0.6-0.4,1.1-0.5,1.6l-3.6,9.7H190.4z"/>
	<path class="st0" d="M216.1,0.3c1.9,0,3.6,0.2,4.9,0.5c1.4,0.4,2.5,0.9,3.4,1.6c0.9,0.7,1.5,1.5,1.9,2.5c0.4,1,0.6,2,0.6,3.2
		c0,0.7-0.1,1.4-0.3,2c-0.2,0.6-0.5,1.2-0.9,1.8c-0.4,0.5-1,1-1.6,1.5c-0.7,0.4-1.4,0.8-2.3,1.1c4,0.9,6,3.1,6,6.5
		c0,1.2-0.2,2.4-0.7,3.5c-0.5,1.1-1.2,2-2.1,2.7c-0.9,0.8-2,1.4-3.3,1.8c-1.3,0.4-2.8,0.6-4.5,0.6H206V0.3H216.1z M211.4,4.5V13h4.3
		c1.9,0,3.3-0.3,4.2-1c1-0.7,1.4-1.8,1.4-3.2c0-1.5-0.4-2.6-1.3-3.3c-0.9-0.6-2.2-1-4.1-1H211.4z M217,25.4c1,0,1.9-0.1,2.6-0.4
		c0.7-0.2,1.2-0.6,1.7-1c0.4-0.4,0.7-0.9,0.9-1.4c0.2-0.5,0.3-1.1,0.3-1.7c0-0.6-0.1-1.2-0.3-1.7c-0.2-0.5-0.5-0.9-1-1.3
		c-0.4-0.4-1-0.6-1.7-0.8c-0.7-0.2-1.5-0.3-2.5-0.3h-5.5v8.6H217z"/>
</g>
</svg>
