<svg xmlns="http://www.w3.org/2000/svg" viewBox="0 0 97.13 140.23">
  <defs>
    <style>
      .cls-1 {
        fill: #fff;
      }
    </style>
  </defs>
  <title>Asset 1</title>
  <g id="Layer_2" data-name="Layer 2">
    <g id="Layer_1-2" data-name="Layer 1">
      <circle class="cls-1" cx="4.14" cy="92.3" r="2.8"/>
      <circle class="cls-1" cx="26.52" cy="92.3" r="2.8"/>
      <circle class="cls-1" cx="48.89" cy="92.3" r="2.8"/>
      <circle class="cls-1" cx="71.27" cy="92.3" r="2.8"/>
      <circle class="cls-1" cx="93.64" cy="92.3" r="2.8"/>
      <circle class="cls-1" cx="4.14" cy="69.92" r="2.8"/>
      <circle class="cls-1" cx="26.52" cy="69.92" r="2.8"/>
      <circle class="cls-1" cx="48.89" cy="69.92" r="2.8"/>
      <circle class="cls-1" cx="71.27" cy="69.92" r="2.8"/>
      <circle class="cls-1" cx="93.64" cy="69.92" r="2.8"/>
      <circle class="cls-1" cx="4.14" cy="47.55" r="2.8"/>
      <circle class="cls-1" cx="26.52" cy="47.55" r="2.8"/>
      <circle class="cls-1" cx="48.89" cy="47.55" r="2.8"/>
      <circle class="cls-1" cx="71.27" cy="47.55" r="2.8"/>
      <circle class="cls-1" cx="93.64" cy="47.55" r="2.8"/>
      <circle class="cls-1" cx="4.14" cy="25.17" r="2.8"/>
      <circle class="cls-1" cx="26.52" cy="25.17" r="2.8"/>
      <circle class="cls-1" cx="48.89" cy="25.17" r="2.8"/>
      <circle class="cls-1" cx="71.27" cy="25.17" r="2.8"/>
      <circle class="cls-1" cx="93.64" cy="25.17" r="2.8"/>
      <circle class="cls-1" cx="4.14" cy="2.8" r="2.8"/>
      <circle class="cls-1" cx="26.52" cy="2.8" r="2.8"/>
      <circle class="cls-1" cx="48.89" cy="2.8" r="2.8"/>
      <circle class="cls-1" cx="71.27" cy="2.8" r="2.8"/>
      <circle class="cls-1" cx="93.64" cy="2.8" r="2.8"/>
      <path class="cls-1" d="M93.64,93.08a.78.78,0,0,1-.7-.43L48.89,4.53,4.84,92.65A.78.78,0,0,1,3.45,92L48.2,2.45a.78.78,0,0,1,1.39,0L94.34,92a.78.78,0,0,1-.69,1.12Z"/>
      <path class="cls-1" d="M71.27,48.32H26.52a.78.78,0,0,1,0-1.55H71.27a.78.78,0,0,1,0,1.55Z"/>
      <g>
        <path class="cls-1" d="M0,139.75,5.27,109.6l-2.06-4.84H8l5.85,35h-4l-1.25-9.82H4.94l-.62,9.82ZM5,129H8.39L7.52,122l-.91-9.58H6.09Z"/>
        <path class="cls-1" d="M19.07,140.23c-2.83,0-4.17-1.49-4.17-4.46a49.56,49.56,0,0,1,.53-7.28h3.45c-2.44,4.7-3.07,6.23-3.07,7.24s.91,1.25,3.26,1.25c1.58,0,2-1,2-2.2,0-4.74-6.37-13.13-6.37-18.31,0-4.27,2.44-5.94,5.32-5.94,2.49,0,3.69,1.44,3.69,4.41a38.93,38.93,0,0,1-.53,6.66H20c2.16-4.27,2.78-5.65,2.78-6.61s-.77-1.2-2.78-1.2c-1.58,0-2,.86-2,2.11,0,4.07,6.37,14.28,6.37,18.45S21.95,140.23,19.07,140.23Z"/>
        <path class="cls-1" d="M31,133c0,3.45.86,4,1.68,4,1.15,0,1.53-1.2,1.63-4.41l.14-6.13h.67l.14,6.28c.1,4.27-1.2,7.52-3.93,7.52-2.44,0-3.69-1.49-3.69-5.61V113.44h-2.2V111h2.2v-4.74a5.34,5.34,0,0,0,3.31-2l.53.14-1,6.18.24.38h4.46v2.44H31Z"/>
        <path class="cls-1" d="M41.26,121.44v18.31H37.9V111h3.31v.53l-1.05,7.28.48.1c1-7.19,2.2-8.39,3.83-8.39q2.16,0,2.16,4.74a49.83,49.83,0,0,1-1,8.72H42c2.73-5.75,3.74-7.81,3.74-8.67s-.43-1.25-1.29-1.25C42.94,114.06,41.26,116.6,41.26,121.44Z"/>
        <path class="cls-1" d="M48.78,134.62V117c0-4.7,2.4-6.47,5.22-6.47,3.07,0,4.65,1.49,4.65,5.61v17.64c0,4.7-2.4,6.47-5.22,6.47C50.41,140.23,48.78,138.74,48.78,134.62Zm3.35-18.11V133c0,3.45.86,4,1.87,4s1.29-1.05,1.29-2.73V117.75c0-3.45-.91-4-1.87-4S52.14,114.83,52.14,116.51Z"/>
        <path class="cls-1" d="M65.36,136.63h5.18v3.11H61.77v-35h3.59Z"/>
        <path class="cls-1" d="M81.27,114.44v19.65c0,2.59.48,2.88,1,2.88s.77-.29.81-1.87l.14-8.39h.67l.14,8.19c0,3-.43,5.32-2.68,5.32-2,0-2.83-1.39-2.25-8.19l-.48-.1c-.72,7.14-1.92,8.29-3.74,8.29s-2.78-1.1-2.78-3.4v-3.31c0-3.88,2-5.42,5.8-9v-8.87c0-1.53-.38-1.92-2-1.92-2.49,0-3.11,1.05-3.11,2.73,0,2,.81,3.79,4.74,7.76H73A19.52,19.52,0,0,1,71.73,117c0-3,2.35-6.52,5.37-6.52C79.88,110.51,81.27,112,81.27,114.44Zm-3.35,15v-3.83c-2.11,2.06-2.44,3.21-2.44,5.22v4.79c0,.86.34,1.15.81,1.15C77.34,136.73,77.92,133.8,77.92,129.4Z"/>
        <path class="cls-1" d="M92.68,140.23a6.72,6.72,0,0,1-5.13-2.83l-.43.1-.29,2.25H86l1-7.86V104.76h3.31v6.76l-1.1,7.28.48.1c1-7.19,2.64-8.39,4.46-8.39s3.07,1.49,3.07,3.88v17.68C97.13,137.83,95.74,140.23,92.68,140.23Zm1-24c0-1.73-.43-2.49-1.25-2.49-1.05,0-2.16,3.26-2.16,7.67V136.2a2.87,2.87,0,0,0,2.06,1c.91,0,1.34-.67,1.34-4.79Z"/>
      </g>
    </g>
  </g>
</svg>
