<?xml version="1.0" encoding="utf-8"?>
<!-- Generator: Adobe Illustrator 22.1.0, SVG Export Plug-In . SVG Version: 6.00 Build 0)  -->
<svg version="1.1" id="Layer_1" xmlns="http://www.w3.org/2000/svg" xmlns:xlink="http://www.w3.org/1999/xlink" x="0px" y="0px"
	 viewBox="0 0 97.1 140.2" style="enable-background:new 0 0 97.1 140.2;" xml:space="preserve">
<title>Asset 1</title>
<g id="Layer_2_1_">
	<g id="Layer_1-2">
		<circle cx="4.1" cy="92.3" r="2.8"/>
		<circle cx="26.5" cy="92.3" r="2.8"/>
		<circle cx="48.9" cy="92.3" r="2.8"/>
		<circle cx="71.3" cy="92.3" r="2.8"/>
		<circle cx="93.6" cy="92.3" r="2.8"/>
		<circle cx="4.1" cy="69.9" r="2.8"/>
		<circle cx="26.5" cy="69.9" r="2.8"/>
		<circle cx="48.9" cy="69.9" r="2.8"/>
		<circle cx="71.3" cy="69.9" r="2.8"/>
		<circle cx="93.6" cy="69.9" r="2.8"/>
		<circle cx="4.1" cy="47.5" r="2.8"/>
		<circle cx="26.5" cy="47.5" r="2.8"/>
		<circle cx="48.9" cy="47.5" r="2.8"/>
		<circle cx="71.3" cy="47.5" r="2.8"/>
		<circle cx="93.6" cy="47.5" r="2.8"/>
		<circle cx="4.1" cy="25.2" r="2.8"/>
		<circle cx="26.5" cy="25.2" r="2.8"/>
		<circle cx="48.9" cy="25.2" r="2.8"/>
		<circle cx="71.3" cy="25.2" r="2.8"/>
		<circle cx="93.6" cy="25.2" r="2.8"/>
		<circle cx="4.1" cy="2.8" r="2.8"/>
		<circle cx="26.5" cy="2.8" r="2.8"/>
		<circle cx="48.9" cy="2.8" r="2.8"/>
		<circle cx="71.3" cy="2.8" r="2.8"/>
		<circle cx="93.6" cy="2.8" r="2.8"/>
		<path d="M93.6,93.1c-0.3,0-0.6-0.2-0.7-0.4L48.9,4.5l-44,88.1c-0.2,0.4-0.7,0.4-1.1,0.2c-0.3-0.2-0.4-0.5-0.3-0.8L48.2,2.5
			c0.2-0.4,0.7-0.5,1-0.3c0.1,0.1,0.3,0.2,0.3,0.3L94.3,92c0.2,0.4,0,0.9-0.4,1C93.9,93.1,93.8,93.1,93.6,93.1L93.6,93.1z"/>
		<path d="M71.3,48.3H26.5c-0.4,0-0.7-0.4-0.7-0.9c0-0.4,0.3-0.6,0.7-0.7h44.7c0.4,0,0.7,0.4,0.7,0.9C71.9,48,71.6,48.3,71.3,48.3z"
			/>
		<g>
			<path d="M0,139.8l5.3-30.2l-2.1-4.8H8l5.9,35h-4l-1.3-9.8H4.9l-0.6,9.8L0,139.8z M5,129h3.4l-0.9-7l-0.9-9.6H6.1L5,129z"/>
			<path d="M19.1,140.2c-2.8,0-4.2-1.5-4.2-4.5c0-2.4,0.2-4.9,0.5-7.3h3.4c-2.4,4.7-3.1,6.2-3.1,7.2s0.9,1.3,3.3,1.3
				c1.6,0,2-1,2-2.2c0-4.7-6.4-13.1-6.4-18.3c0-4.3,2.4-5.9,5.3-5.9c2.5,0,3.7,1.4,3.7,4.4c0,2.2-0.2,4.5-0.5,6.7H20
				c2.2-4.3,2.8-5.7,2.8-6.6s-0.8-1.2-2.8-1.2c-1.6,0-2,0.9-2,2.1c0,4.1,6.4,14.3,6.4,18.4S22,140.2,19.1,140.2z"/>
			<path d="M31,133c0,3.4,0.9,4,1.7,4c1.2,0,1.5-1.2,1.6-4.4l0.1-6.1h0.7l0.1,6.3c0.1,4.3-1.2,7.5-3.9,7.5c-2.4,0-3.7-1.5-3.7-5.6
				v-21.2h-2.2V111h2.2v-4.7c1.3-0.2,2.5-0.9,3.3-2l0.5,0.1l-1,6.2l0.2,0.4h4.5v2.4H31V133z"/>
			<path d="M41.3,121.4v18.3h-3.4V111h3.3v0.5l-1,7.3l0.5,0.1c1-7.2,2.2-8.4,3.8-8.4c1.4,0,2.2,1.6,2.2,4.7c-0.1,2.9-0.4,5.8-1,8.7
				H42c2.7-5.8,3.7-7.8,3.7-8.7s-0.4-1.3-1.3-1.3C42.9,114.1,41.3,116.6,41.3,121.4z"/>
			<path d="M48.8,134.6V117c0-4.7,2.4-6.5,5.2-6.5c3.1,0,4.7,1.5,4.7,5.6v17.6c0,4.7-2.4,6.5-5.2,6.5
				C50.4,140.2,48.8,138.7,48.8,134.6z M52.1,116.5V133c0,3.4,0.9,4,1.9,4s1.3-1.1,1.3-2.7v-16.5c0-3.4-0.9-4-1.9-4
				S52.1,114.8,52.1,116.5L52.1,116.5z"/>
			<path d="M65.4,136.6h5.2v3.1h-8.8v-35h3.6V136.6z"/>
			<path d="M81.3,114.4v19.6c0,2.6,0.5,2.9,1,2.9s0.8-0.3,0.8-1.9l0.1-8.4h0.7l0.1,8.2c0,3-0.4,5.3-2.7,5.3c-2,0-2.8-1.4-2.3-8.2
				l-0.5-0.1c-0.7,7.1-1.9,8.3-3.7,8.3s-2.8-1.1-2.8-3.4v-3.3c0-3.9,2-5.4,5.8-9v-8.9c0-1.5-0.4-1.9-2-1.9c-2.5,0-3.1,1.1-3.1,2.7
				c0,2,0.8,3.8,4.7,7.8H73c-0.9-2.3-1.3-4.7-1.3-7.2c0-3,2.3-6.5,5.4-6.5C79.9,110.5,81.3,112,81.3,114.4z M77.9,129.4v-3.8
				c-2.1,2.1-2.4,3.2-2.4,5.2v4.8c0,0.9,0.3,1.1,0.8,1.1C77.3,136.7,77.9,133.8,77.9,129.4L77.9,129.4z"/>
			<path d="M92.7,140.2c-2.1-0.1-3.9-1.2-5.1-2.8l-0.4,0.1l-0.3,2.3H86l1-7.9v-27.1h3.3v6.8l-1.1,7.3l0.5,0.1c1-7.2,2.6-8.4,4.5-8.4
				s3.1,1.5,3.1,3.9v17.7C97.1,137.8,95.7,140.2,92.7,140.2z M93.7,116.2c0-1.7-0.4-2.5-1.3-2.5c-1.1,0-2.2,3.3-2.2,7.7v14.8
				c0.5,0.6,1.3,1,2.1,1c0.9,0,1.3-0.7,1.3-4.8L93.7,116.2z"/>
		</g>
	</g>
</g>
</svg>